<svg width="74" height="73" viewBox="0 0 74 73" fill="none" xmlns="http://www.w3.org/2000/svg">
<rect x="0.75" y="0.75" width="72" height="71" rx="7.25" fill="#6517AC" stroke="url(#paint0_linear_25_987)" stroke-width="1.5"/>
<rect x="6.5" y="6" width="60.5" height="60.5" rx="7.5" fill="#9333EA" stroke="url(#paint1_linear_25_987)"/>
<mask id="mask0_25_987" style="mask-type:alpha" maskUnits="userSpaceOnUse" x="1" y="1" width="71" height="71">
<rect x="1.5" y="1" width="70.5" height="70.5" rx="8" fill="#9333EA"/>
</mask>
<g mask="url(#mask0_25_987)">
<path d="M-2.51221 80.6707H80.5975V37.1097C80.5975 47.5265 25.191 55.4969 -2.51221 58.18V80.6707Z" fill="#6517AC" fill-opacity="0.15"/>
<ellipse cx="16.1159" cy="-2.43905" rx="57.6037" ry="34.9634" fill="white" fill-opacity="0.05"/>
<g filter="url(#filter0_f_25_987)">
<ellipse cx="5.42085" cy="1.72949" rx="1.56743" ry="1.40698" transform="rotate(-180 5.42085 1.72949)" fill="white"/>
</g>
<g filter="url(#filter1_f_25_987)">
<ellipse cx="2.56713" cy="2.43136" rx="2.56713" ry="2.43136" transform="matrix(1 0 0 -1 2.96484 3.80298)" fill="white" style="mix-blend-mode:plus-lighter"/>
</g>
<g filter="url(#filter2_f_25_987)">
<path d="M-0.214844 4.54346L6.7187 0.330704L6.61159 1.09854L-0.214844 4.54346Z" fill="white"/>
</g>
<g filter="url(#filter3_f_25_987)">
<path d="M11.438 -2.10986L4.75515 2.07514L4.81308 1.30975L11.438 -2.10986Z" fill="white"/>
</g>
<g filter="url(#filter4_f_25_987)">
<path d="M6.17529 -5.30493L5.75019 2.56869L5.15769 2.08071L6.17529 -5.30493Z" fill="white"/>
</g>
<g filter="url(#filter5_f_25_987)">
<path d="M4.85327 8.41882L5.21624 0.542097L5.81257 1.02538L4.85327 8.41882Z" fill="white"/>
</g>
<g filter="url(#filter6_f_25_987)">
<path d="M10.3948 5.05615L3.85346 0.56141L4.68103 0.385173L10.3948 5.05615Z" fill="white"/>
</g>
<g filter="url(#filter7_f_25_987)">
<path d="M1.01465 -2.57837L6.98748 2.52055L6.1438 2.61609L1.01465 -2.57837Z" fill="white"/>
</g>
<g filter="url(#filter8_f_25_987)">
<ellipse cx="70.1076" cy="69.4078" rx="1.96761" ry="1.7662" transform="rotate(-180 70.1076 69.4078)" fill="white"/>
</g>
<g filter="url(#filter9_f_25_987)">
<ellipse cx="3.22254" cy="3.05212" rx="3.22254" ry="3.05212" transform="matrix(1 0 0 -1 67.0247 72.0105)" fill="white" style="mix-blend-mode:plus-lighter"/>
</g>
<g filter="url(#filter10_f_25_987)">
<path d="M63.0332 72.9402L71.737 67.6519L71.6025 68.6157L63.0332 72.9402Z" fill="white"/>
</g>
<g filter="url(#filter11_f_25_987)">
<path d="M77.6609 64.5881L69.2719 69.8416L69.3446 68.8808L77.6609 64.5881Z" fill="white"/>
</g>
<g filter="url(#filter12_f_25_987)">
<path d="M71.0549 60.5774L70.5213 70.4612L69.7775 69.8487L71.0549 60.5774Z" fill="white"/>
</g>
<g filter="url(#filter13_f_25_987)">
<path d="M69.395 77.8049L69.8507 67.9172L70.5992 68.5239L69.395 77.8049Z" fill="white"/>
</g>
<g filter="url(#filter14_f_25_987)">
<path d="M76.3516 73.5835L68.1402 67.9412L69.179 67.72L76.3516 73.5835Z" fill="white"/>
</g>
<g filter="url(#filter15_f_25_987)">
<path d="M64.5767 64L72.0744 70.4007L71.0153 70.5207L64.5767 64Z" fill="white"/>
</g>
</g>
<circle cx="62.25" cy="10.25" r="0.75" fill="white" fill-opacity="0.5"/>
<circle cx="10.75" cy="63.25" r="0.75" fill="white" fill-opacity="0.5"/>
<circle cx="4.75" cy="59.75" r="0.75" fill="white" fill-opacity="0.5"/>
<circle cx="10.75" cy="10.75" r="1.25" fill="white" fill-opacity="0.5"/>
<circle cx="68.25" cy="67.25" r="1.25" fill="white" fill-opacity="0.5"/>
<circle cx="13.75" cy="8.75" r="0.75" fill="white" fill-opacity="0.6"/>
<path d="M66.75 71H7.75C12.35 71 14 68.3333 14.25 67H60C60 69.6 64.5 70.75 66.75 71Z" fill="#4F0097"/>
<path d="M71.5 10.5L71.5 69.5C71.5 64.9 68.8333 63.25 67.5 63L67.5 17.25C70.1 17.25 71.25 12.75 71.5 10.5Z" fill="#4F0097" fill-opacity="0.4"/>
<path d="M21.5 1.5L65 1.5C61.6085 1.5 60.3919 4.16667 60.2076 5.5L26.4767 5.5C26.4767 2.9 23.1589 1.75 21.5 1.5Z" fill="url(#paint2_linear_25_987)" fill-opacity="0.3"/>
<path d="M2 64L2 37C2 39.1051 4.66667 39.8602 6 39.9746L6 60.911C3.4 60.911 2.25 62.9703 2 64Z" fill="url(#paint3_linear_25_987)" fill-opacity="0.3"/>
<path d="M72 23.5L72 48C72 46.0898 69.3333 45.4047 68 45.3008L68 26.303C70.6 26.303 71.75 24.4343 72 23.5Z" fill="url(#paint4_linear_25_987)" fill-opacity="0.3"/>
<path d="M1.75 65.75V7.25C1.91667 5.33333 3.35 1.5 7.75 1.5C12.15 1.5 48.4167 1.5 66 1.5C68 1.83333 72 3.6 72 8C72 12.4 72 48 72 48.0833" stroke="white" stroke-opacity="0.38" stroke-width="0.5"/>
<path d="M47.5625 46C48.01 46 48.4394 46.1777 48.7559 46.4941C49.0723 46.8106 49.25 47.2399 49.25 47.6875V49.5625C49.25 50.0101 49.0723 50.4394 48.7559 50.7559C48.4394 51.0723 48.01 51.25 47.5625 51.25H26.9375C26.49 51.25 26.0606 51.0723 25.7441 50.7559C25.4277 50.4394 25.25 50.0101 25.25 49.5625V47.6875C25.25 47.2399 25.4277 46.8106 25.7441 46.4941C26.0606 46.1777 26.49 46 26.9375 46H47.5625ZM35.3711 21.625C41.9967 21.625 47.3672 27.0003 47.3672 33.625V45.625H27.125V44.0244L27.1377 43.6465C27.1986 42.7692 27.4716 41.9175 27.9355 41.166C28.466 40.307 29.2261 39.6121 30.1289 39.1602L33.4814 37.4814L33.6074 37.4131C33.8948 37.2434 34.1373 37.0058 34.3135 36.7207C34.5147 36.3949 34.6212 36.0197 34.6211 35.6367V33.9014L34.4111 34.0068V34.0078C34.3265 34.0501 34.2516 34.1098 34.1924 34.1836C34.1331 34.2575 34.0903 34.3437 34.0674 34.4355L34.0635 34.4531L34.0586 34.4697L33.5176 36.2646C33.404 36.6426 33.2069 36.9911 32.9404 37.2822C32.7074 37.5368 32.4271 37.743 32.1152 37.8887L31.9795 37.9473L31.2305 38.2471C30.905 38.3772 30.5565 38.4412 30.2061 38.4346C29.8556 38.428 29.5098 38.3513 29.1895 38.209L26.8086 37.1504C26.3446 36.9441 25.9505 36.6075 25.6738 36.1816C25.3972 35.7556 25.2497 35.258 25.25 34.75V26.7109C25.2495 26.4282 25.3045 26.1481 25.4121 25.8867C25.52 25.6247 25.6789 25.3863 25.8789 25.1855L25.8799 25.1846L26.0244 25.0391L25.4336 23.8574C25.3126 23.6155 25.2499 23.3486 25.25 23.0781C25.25 22.6927 25.4033 22.3233 25.6758 22.0508C25.9483 21.7783 26.3177 21.625 26.7031 21.625H35.3711ZM29.0469 28.75C28.935 28.75 28.8281 28.7949 28.749 28.874C28.6699 28.9531 28.625 29.06 28.625 29.1719L28.6299 29.2344C28.6391 29.2956 28.6616 29.3543 28.6963 29.4062C28.7426 29.4756 28.8087 29.5296 28.8857 29.5615C28.9627 29.5933 29.0472 29.6021 29.1289 29.5859C29.2107 29.5697 29.2857 29.5287 29.3447 29.4697C29.4037 29.4107 29.4447 29.3357 29.4609 29.2539C29.4771 29.1722 29.4683 29.0877 29.4365 29.0107C29.4046 28.9337 29.3506 28.8676 29.2812 28.8213C29.2119 28.7749 29.1303 28.75 29.0469 28.75Z" fill="white" stroke="#4F0097" stroke-width="1.5"/>
<defs>
<filter id="filter0_f_25_987" x="-1.64243" y="-5.17344" width="14.1267" height="13.8059" filterUnits="userSpaceOnUse" color-interpolation-filters="sRGB">
<feFlood flood-opacity="0" result="BackgroundImageFix"/>
<feBlend mode="normal" in="SourceGraphic" in2="BackgroundImageFix" result="shape"/>
<feGaussianBlur stdDeviation="2.74797" result="effect1_foregroundBlur_25_987"/>
</filter>
<filter id="filter1_f_25_987" x="-2.5311" y="-6.55564" width="16.1262" height="15.8546" filterUnits="userSpaceOnUse" color-interpolation-filters="sRGB">
<feFlood flood-opacity="0" result="BackgroundImageFix"/>
<feBlend mode="normal" in="SourceGraphic" in2="BackgroundImageFix" result="shape"/>
<feGaussianBlur stdDeviation="2.74797" result="effect1_foregroundBlur_25_987"/>
</filter>
<filter id="filter2_f_25_987" x="-2.77635" y="-2.23082" width="12.0566" height="9.33578" filterUnits="userSpaceOnUse" color-interpolation-filters="sRGB">
<feFlood flood-opacity="0" result="BackgroundImageFix"/>
<feBlend mode="normal" in="SourceGraphic" in2="BackgroundImageFix" result="shape"/>
<feGaussianBlur stdDeviation="1.28075" result="effect1_foregroundBlur_25_987"/>
</filter>
<filter id="filter3_f_25_987" x="2.19362" y="-4.67137" width="11.8059" height="9.30807" filterUnits="userSpaceOnUse" color-interpolation-filters="sRGB">
<feFlood flood-opacity="0" result="BackgroundImageFix"/>
<feBlend mode="normal" in="SourceGraphic" in2="BackgroundImageFix" result="shape"/>
<feGaussianBlur stdDeviation="1.28075" result="effect1_foregroundBlur_25_987"/>
</filter>
<filter id="filter4_f_25_987" x="2.59621" y="-7.86644" width="6.14059" height="12.9967" filterUnits="userSpaceOnUse" color-interpolation-filters="sRGB">
<feFlood flood-opacity="0" result="BackgroundImageFix"/>
<feBlend mode="normal" in="SourceGraphic" in2="BackgroundImageFix" result="shape"/>
<feGaussianBlur stdDeviation="1.28075" result="effect1_foregroundBlur_25_987"/>
</filter>
<filter id="filter5_f_25_987" x="2.29177" y="-2.01939" width="6.08224" height="12.9997" filterUnits="userSpaceOnUse" color-interpolation-filters="sRGB">
<feFlood flood-opacity="0" result="BackgroundImageFix"/>
<feBlend mode="normal" in="SourceGraphic" in2="BackgroundImageFix" result="shape"/>
<feGaussianBlur stdDeviation="1.28075" result="effect1_foregroundBlur_25_987"/>
</filter>
<filter id="filter6_f_25_987" x="1.29201" y="-2.17637" width="11.6643" height="9.79403" filterUnits="userSpaceOnUse" color-interpolation-filters="sRGB">
<feFlood flood-opacity="0" result="BackgroundImageFix"/>
<feBlend mode="normal" in="SourceGraphic" in2="BackgroundImageFix" result="shape"/>
<feGaussianBlur stdDeviation="1.28075" result="effect1_foregroundBlur_25_987"/>
</filter>
<filter id="filter7_f_25_987" x="-1.54686" y="-5.13987" width="11.0959" height="10.3175" filterUnits="userSpaceOnUse" color-interpolation-filters="sRGB">
<feFlood flood-opacity="0" result="BackgroundImageFix"/>
<feBlend mode="normal" in="SourceGraphic" in2="BackgroundImageFix" result="shape"/>
<feGaussianBlur stdDeviation="1.28075" result="effect1_foregroundBlur_25_987"/>
</filter>
<filter id="filter8_f_25_987" x="62.6439" y="62.1457" width="14.9272" height="14.5242" filterUnits="userSpaceOnUse" color-interpolation-filters="sRGB">
<feFlood flood-opacity="0" result="BackgroundImageFix"/>
<feBlend mode="normal" in="SourceGraphic" in2="BackgroundImageFix" result="shape"/>
<feGaussianBlur stdDeviation="2.74797" result="effect1_foregroundBlur_25_987"/>
</filter>
<filter id="filter9_f_25_987" x="61.5287" y="60.4103" width="17.437" height="17.0961" filterUnits="userSpaceOnUse" color-interpolation-filters="sRGB">
<feFlood flood-opacity="0" result="BackgroundImageFix"/>
<feBlend mode="normal" in="SourceGraphic" in2="BackgroundImageFix" result="shape"/>
<feGaussianBlur stdDeviation="2.74797" result="effect1_foregroundBlur_25_987"/>
</filter>
<filter id="filter10_f_25_987" x="60.4717" y="65.0904" width="13.8269" height="10.4113" filterUnits="userSpaceOnUse" color-interpolation-filters="sRGB">
<feFlood flood-opacity="0" result="BackgroundImageFix"/>
<feBlend mode="normal" in="SourceGraphic" in2="BackgroundImageFix" result="shape"/>
<feGaussianBlur stdDeviation="1.28075" result="effect1_foregroundBlur_25_987"/>
</filter>
<filter id="filter11_f_25_987" x="66.7102" y="62.0266" width="13.5122" height="10.3765" filterUnits="userSpaceOnUse" color-interpolation-filters="sRGB">
<feFlood flood-opacity="0" result="BackgroundImageFix"/>
<feBlend mode="normal" in="SourceGraphic" in2="BackgroundImageFix" result="shape"/>
<feGaussianBlur stdDeviation="1.28075" result="effect1_foregroundBlur_25_987"/>
</filter>
<filter id="filter12_f_25_987" x="67.2161" y="58.0159" width="6.40035" height="15.0068" filterUnits="userSpaceOnUse" color-interpolation-filters="sRGB">
<feFlood flood-opacity="0" result="BackgroundImageFix"/>
<feBlend mode="normal" in="SourceGraphic" in2="BackgroundImageFix" result="shape"/>
<feGaussianBlur stdDeviation="1.28075" result="effect1_foregroundBlur_25_987"/>
</filter>
<filter id="filter13_f_25_987" x="66.8335" y="65.3557" width="6.32711" height="15.0107" filterUnits="userSpaceOnUse" color-interpolation-filters="sRGB">
<feFlood flood-opacity="0" result="BackgroundImageFix"/>
<feBlend mode="normal" in="SourceGraphic" in2="BackgroundImageFix" result="shape"/>
<feGaussianBlur stdDeviation="1.28075" result="effect1_foregroundBlur_25_987"/>
</filter>
<filter id="filter14_f_25_987" x="65.5786" y="65.1585" width="13.3344" height="10.9865" filterUnits="userSpaceOnUse" color-interpolation-filters="sRGB">
<feFlood flood-opacity="0" result="BackgroundImageFix"/>
<feBlend mode="normal" in="SourceGraphic" in2="BackgroundImageFix" result="shape"/>
<feGaussianBlur stdDeviation="1.28075" result="effect1_foregroundBlur_25_987"/>
</filter>
<filter id="filter15_f_25_987" x="62.0152" y="61.4385" width="12.6208" height="11.6436" filterUnits="userSpaceOnUse" color-interpolation-filters="sRGB">
<feFlood flood-opacity="0" result="BackgroundImageFix"/>
<feBlend mode="normal" in="SourceGraphic" in2="BackgroundImageFix" result="shape"/>
<feGaussianBlur stdDeviation="1.28075" result="effect1_foregroundBlur_25_987"/>
</filter>
<linearGradient id="paint0_linear_25_987" x1="-23.6037" y1="-20.0407" x2="79.5452" y2="83.9334" gradientUnits="userSpaceOnUse">
<stop stop-color="#65119D"/>
<stop offset="0.553779" stop-color="#A962E8"/>
<stop offset="1" stop-color="#65119D"/>
</linearGradient>
<linearGradient id="paint1_linear_25_987" x1="-13.75" y1="-11.5" x2="73.75" y2="75.5" gradientUnits="userSpaceOnUse">
<stop stop-color="white"/>
<stop offset="0.553779" stop-color="#A962E8"/>
<stop offset="1" stop-color="white"/>
</linearGradient>
<linearGradient id="paint2_linear_25_987" x1="21.5" y1="3.5" x2="65" y2="3.5" gradientUnits="userSpaceOnUse">
<stop offset="0.416648" stop-color="white"/>
<stop offset="1" stop-color="#6517AC"/>
</linearGradient>
<linearGradient id="paint3_linear_25_987" x1="4" y1="64" x2="4" y2="37" gradientUnits="userSpaceOnUse">
<stop offset="0.416648" stop-color="white"/>
<stop offset="1" stop-color="#6517AC"/>
</linearGradient>
<linearGradient id="paint4_linear_25_987" x1="70" y1="23.5" x2="70" y2="48" gradientUnits="userSpaceOnUse">
<stop offset="0.416648" stop-color="white"/>
<stop offset="1" stop-color="#6517AC"/>
</linearGradient>
</defs>
</svg>
